<svg width="40" height="40" viewBox="0 0 40 40" fill="none" xmlns="http://www.w3.org/2000/svg">
<path d="M8 34H32.5556" stroke="#CB1744" stroke-width="1.8" stroke-linecap="round"/>
<path d="M28.028 18.0232L27.8507 18.0229V18.2002C27.8507 19.3069 28.1741 20.1609 28.7555 20.7382C29.3365 21.315 30.1532 21.5938 31.0971 21.5938C32.1441 21.5938 32.9587 21.3541 33.5139 20.8814C34.0738 20.4049 34.3438 19.7137 34.3438 18.8701C34.3438 17.907 34.0734 17.2916 33.5105 16.8367C32.9687 16.3989 32.1663 16.1213 31.1534 15.7817L31.1534 15.7817L31.1496 15.7805C30.4437 15.5613 29.9143 15.3505 29.5614 15.0769C29.2216 14.8135 29.0452 14.4923 29.0452 14.0238C29.0452 13.4491 29.2257 13.0566 29.5482 12.8018C29.8784 12.5409 30.3861 12.4013 31.0851 12.4012C31.7397 12.4013 32.248 12.5369 32.5926 12.843C32.9331 13.1454 33.1469 13.6444 33.1469 14.4483V14.6254H33.324H33.9382H34.1153V14.4483C34.1153 13.3464 33.8224 12.5549 33.2779 12.0414C32.7352 11.5297 31.9731 11.3229 31.0958 11.3229C30.1637 11.3229 29.4063 11.5286 28.8794 11.9671C28.3469 12.4103 28.0768 13.0687 28.0768 13.9121C28.0768 14.7415 28.3514 15.3344 28.8759 15.7944C29.3879 16.2434 30.1286 16.5567 31.0388 16.8627L31.0404 16.8632C31.1239 16.8904 31.2053 16.9167 31.2844 16.9423C31.9343 17.1522 32.433 17.3133 32.7875 17.5627C32.9797 17.6979 33.1233 17.8558 33.2205 18.0584C33.3185 18.2625 33.3746 18.523 33.3746 18.8704C33.3746 19.434 33.1714 19.8327 32.8037 20.0976C32.4263 20.3694 31.8535 20.5162 31.0891 20.5162H31.088C30.4166 20.5162 29.8536 20.3386 29.4597 19.9736C29.0683 19.611 28.8189 19.0402 28.8189 18.201V18.0241L28.642 18.0239L28.028 18.0232Z" fill="#CB1744" stroke="#CB1744" stroke-width="0.354167"/>
<mask id="path-3-outside-1_3026_2776" maskUnits="userSpaceOnUse" x="15.6943" y="10.5" width="11" height="12" fill="black">
<rect fill="white" x="15.6943" y="10.5" width="11" height="12"/>
<path d="M21.4136 11.5C20.4797 11.5006 19.567 11.792 18.7909 12.3372C18.0147 12.8824 17.4099 13.657 17.0529 14.563C16.696 15.4691 16.6029 16.466 16.7854 17.4276C16.968 18.3892 17.418 19.2724 18.0785 19.9655C18.739 20.6586 19.5805 21.1306 20.4964 21.3216C21.4123 21.5127 22.3617 21.4143 23.2244 21.0389C24.0871 20.6636 24.8244 20.028 25.3432 19.2127C25.8619 18.3974 26.1388 17.4389 26.1388 16.4583C26.1387 15.807 26.0163 15.162 25.7788 14.5603C25.5412 13.9586 25.1931 13.4119 24.7543 12.9514C24.3156 12.491 23.7947 12.1258 23.2215 11.8768C22.6482 11.6277 22.0339 11.4997 21.4136 11.5ZM21.4136 20.6937C20.6158 20.6934 19.836 20.4448 19.1729 19.9792C18.5097 19.5136 17.9929 18.852 17.6878 18.078C17.3828 17.3041 17.3031 16.4525 17.4589 15.631C17.6148 14.8095 17.9991 14.0549 18.5633 13.4628C19.1276 12.8706 19.8463 12.4674 20.6288 12.3042C21.4113 12.1409 22.2222 12.2249 22.9592 12.5456C23.6962 12.8663 24.3261 13.4092 24.7692 14.1058C25.2123 14.8023 25.4487 15.6212 25.4487 16.4588C25.4484 17.5821 25.0232 18.6593 24.2666 19.4534C23.51 20.2476 22.484 20.6937 21.4143 20.6937"/>
</mask>
<path d="M21.4136 11.5C20.4797 11.5006 19.567 11.792 18.7909 12.3372C18.0147 12.8824 17.4099 13.657 17.0529 14.563C16.696 15.4691 16.6029 16.466 16.7854 17.4276C16.968 18.3892 17.418 19.2724 18.0785 19.9655C18.739 20.6586 19.5805 21.1306 20.4964 21.3216C21.4123 21.5127 22.3617 21.4143 23.2244 21.0389C24.0871 20.6636 24.8244 20.028 25.3432 19.2127C25.8619 18.3974 26.1388 17.4389 26.1388 16.4583C26.1387 15.807 26.0163 15.162 25.7788 14.5603C25.5412 13.9586 25.1931 13.4119 24.7543 12.9514C24.3156 12.491 23.7947 12.1258 23.2215 11.8768C22.6482 11.6277 22.0339 11.4997 21.4136 11.5ZM21.4136 20.6937C20.6158 20.6934 19.836 20.4448 19.1729 19.9792C18.5097 19.5136 17.9929 18.852 17.6878 18.078C17.3828 17.3041 17.3031 16.4525 17.4589 15.631C17.6148 14.8095 17.9991 14.0549 18.5633 13.4628C19.1276 12.8706 19.8463 12.4674 20.6288 12.3042C21.4113 12.1409 22.2222 12.2249 22.9592 12.5456C23.6962 12.8663 24.3261 13.4092 24.7692 14.1058C25.2123 14.8023 25.4487 15.6212 25.4487 16.4588C25.4484 17.5821 25.0232 18.6593 24.2666 19.4534C23.51 20.2476 22.484 20.6937 21.4143 20.6937" fill="#CB1744"/>
<path d="M21.4136 11.5L21.4134 11.1458L21.4133 11.1458L21.4136 11.5ZM26.1388 16.4583L26.4929 16.4583L26.4929 16.4583L26.1388 16.4583ZM25.4487 16.4588L25.8028 16.4589L25.8028 16.4589L25.4487 16.4588ZM21.4133 11.1458C20.4055 11.1465 19.422 11.461 18.5873 12.0473L18.9944 12.627C19.712 12.1229 20.554 11.8547 21.4138 11.8542L21.4133 11.1458ZM18.5873 12.0473C17.7528 12.6335 17.1051 13.4645 16.7234 14.4332L17.3825 14.6929C17.7147 13.8495 18.2766 13.1312 18.9944 12.627L18.5873 12.0473ZM16.7234 14.4332C16.3418 15.4019 16.2425 16.4667 16.4375 17.4936L17.1334 17.3615C16.9633 16.4653 17.0502 15.5364 17.3825 14.6929L16.7234 14.4332ZM16.4375 17.4936C16.6325 18.5207 17.1134 19.4662 17.8221 20.2099L18.3349 19.7212C17.7225 19.0786 17.3035 18.2577 17.1334 17.3615L16.4375 17.4936ZM17.8221 20.2099C18.531 20.9537 19.4361 21.4622 20.4241 21.6683L20.5687 20.9749C19.7248 20.7989 18.9471 20.3636 18.3349 19.7212L17.8221 20.2099ZM20.4241 21.6683C21.4122 21.8744 22.4362 21.7681 23.3657 21.3637L23.0831 20.7142C22.2872 21.0605 21.4125 21.1509 20.5687 20.9749L20.4241 21.6683ZM23.3657 21.3637C24.295 20.9593 25.0864 20.276 25.642 19.4028L25.0443 19.0226C24.5624 19.7801 23.8792 20.3678 23.0831 20.7142L23.3657 21.3637ZM25.642 19.4028C26.1974 18.5298 26.4929 17.5052 26.4929 16.4583L25.7846 16.4583C25.7846 17.3726 25.5264 18.265 25.0443 19.0226L25.642 19.4028ZM26.4929 16.4583C26.4928 15.7627 26.3622 15.0736 26.1082 14.4302L25.4494 14.6903C25.6705 15.2504 25.7845 15.8512 25.7846 16.4584L26.4929 16.4583ZM26.1082 14.4302C25.8542 13.7868 25.4816 13.2011 25.0107 12.7071L24.498 13.1958C24.9047 13.6226 25.2283 14.1303 25.4494 14.6903L26.1082 14.4302ZM25.0107 12.7071C24.5399 12.213 23.98 11.8202 23.3626 11.552L23.0803 12.2016C23.6094 12.4315 24.0912 12.769 24.498 13.1958L25.0107 12.7071ZM23.3626 11.552C22.7451 11.2837 22.0827 11.1455 21.4134 11.1458L21.4137 11.8542C21.9851 11.8539 22.5514 11.9718 23.0803 12.2016L23.3626 11.552ZM21.4137 20.3396C20.6899 20.3393 19.981 20.1138 19.3764 19.6893L18.9694 20.2691C19.6911 20.7758 20.5417 21.0476 21.4134 21.0479L21.4137 20.3396ZM19.3764 19.6893C18.7716 19.2647 18.2977 18.6594 18.0173 17.9482L17.3583 18.2079C17.6881 19.0446 18.2479 19.7625 18.9694 20.2691L19.3764 19.6893ZM18.0173 17.9482C17.7369 17.2368 17.6635 16.4531 17.8069 15.697L17.111 15.565C16.9427 16.4519 17.0286 17.3714 17.3583 18.2079L18.0173 17.9482ZM17.8069 15.697C17.9503 14.9409 18.3037 14.2487 18.8197 13.7071L18.3069 13.2185C17.6945 13.8612 17.2792 14.678 17.111 15.565L17.8069 15.697ZM18.8197 13.7071C19.3356 13.1656 19.9907 12.7991 20.7011 12.6509L20.5565 11.9575C19.702 12.1357 18.9195 12.5756 18.3069 13.2185L18.8197 13.7071ZM20.7011 12.6509C21.4114 12.5027 22.1478 12.5788 22.8179 12.8704L23.1005 12.2209C22.2967 11.8711 21.4111 11.7791 20.5565 11.9575L20.7011 12.6509ZM22.8179 12.8704C23.4883 13.1621 24.0641 13.6572 24.4704 14.2959L25.068 13.9157C24.5881 13.1613 23.9041 12.5705 23.1005 12.2209L22.8179 12.8704ZM24.4704 14.2959C24.8768 14.9347 25.0946 15.6874 25.0945 16.4588L25.8028 16.4589C25.8029 15.5549 25.5478 14.6699 25.068 13.9157L24.4704 14.2959ZM25.0945 16.4587C25.0942 17.4935 24.7024 18.4825 24.0102 19.2091L24.523 19.6977C25.344 18.836 25.8025 17.6707 25.8028 16.4589L25.0945 16.4587ZM24.0102 19.2091C23.3185 19.9351 22.3844 20.3396 21.4143 20.3396L21.4143 21.0479C22.5837 21.0479 23.7015 20.56 24.523 19.6977L24.0102 19.2091Z" fill="#CB1744" mask="url(#path-3-outside-1_3026_2776)"/>
<path d="M8.438 21.1217H8.56765L8.60681 20.9981L10.3197 15.5914L12.0333 20.9982L12.0724 21.1217H12.2021H13.0335H13.1631L13.2023 20.9981L15.4466 13.9148L15.5196 13.6842H15.2778H14.5028H14.3731L14.334 13.8078L12.6177 19.2239L10.9016 13.8078L10.8624 13.6842H10.7328H9.90608H9.77642L9.73726 13.8079L8.02166 19.2239L6.30537 13.8078L6.2662 13.6842H6.13656H5.36108H5.1192L5.19227 13.9148L7.43707 20.9982L7.47623 21.1217H7.60588H8.438Z" fill="#F0ECE4" stroke="#F0ECE4" stroke-width="0.354167"/>
<path d="M13.625 30H6.30556C4.47995 30 3 28.5201 3 26.6944V9.30556C3 7.47995 4.47995 6 6.30556 6H33.6944C35.5201 6 37 7.47995 37 9.30556V26.6944C37 28.5201 35.5201 30 33.6944 30H20V23.7692M20 23.7692L15.9348 27.042M20 23.7692L24.4348 27.042" stroke="#CB1744" stroke-width="1.8" stroke-linecap="round"/>
</svg>
