<?xml version="1.0" encoding="UTF-8"?>
<svg xmlns="http://www.w3.org/2000/svg" xmlns:xlink="http://www.w3.org/1999/xlink" width="16px" height="16px" viewBox="0 0 16 16" version="1.1">
<g id="surface1">
<path style=" stroke:none;fill-rule:nonzero;fill:rgb(76.862745%,3.137255%,30.980392%);fill-opacity:1;" d="M 7.992188 15.988281 C 12.410156 15.988281 15.988281 12.40625 15.988281 7.996094 C 15.988281 3.578125 12.410156 0 7.992188 0 C 3.578125 0 0 3.578125 0 7.996094 C 0 12.40625 3.578125 15.988281 7.992188 15.988281 "/>
<path style=" stroke:none;fill-rule:nonzero;fill:rgb(100%,100%,100%);fill-opacity:1;" d="M 7.671875 4.484375 L 7.671875 11.5 L 9.898438 11.5 L 9.898438 10.867188 L 8.316406 10.867188 L 8.316406 4.484375 L 7.671875 4.484375 "/>
<path style=" stroke:none;fill-rule:nonzero;fill:rgb(100%,100%,100%);fill-opacity:1;" d="M 5.4375 6.402344 C 5.964844 6.402344 6.402344 5.972656 6.402344 5.441406 C 6.402344 4.910156 5.964844 4.480469 5.4375 4.480469 C 4.910156 4.480469 4.480469 4.910156 4.480469 5.441406 C 4.480469 5.972656 4.910156 6.402344 5.4375 6.402344 "/>
<path style=" stroke:none;fill-rule:nonzero;fill:rgb(100%,100%,100%);fill-opacity:1;" d="M 8.316406 1.308594 C 8.226562 1.304688 8.074219 1.304688 7.992188 1.304688 C 4.300781 1.304688 1.300781 4.300781 1.300781 7.996094 C 1.300781 9.78125 2 11.460938 3.257812 12.722656 C 4.523438 13.988281 6.203125 14.691406 7.992188 14.691406 C 9.78125 14.691406 11.460938 13.988281 12.726562 12.722656 C 13.984375 11.460938 14.679688 9.78125 14.679688 7.996094 L 14.679688 7.6875 L 9.902344 7.6875 L 9.902344 8.308594 L 14.046875 8.308594 C 14.046875 8.324219 14.042969 8.390625 14.042969 8.40625 C 13.839844 11.5625 11.195312 14.058594 7.992188 14.058594 C 6.375 14.058594 4.847656 13.429688 3.703125 12.285156 C 2.558594 11.140625 1.921875 9.613281 1.921875 7.992188 C 1.921875 6.375 2.558594 4.851562 3.703125 3.707031 C 4.847656 2.558594 6.375 1.925781 7.992188 1.925781 C 8.066406 1.925781 8.234375 1.929688 8.316406 1.933594 L 8.316406 1.308594 "/>
</g>
</svg>
