<?xml version="1.0" standalone="no"?>
<!DOCTYPE svg PUBLIC "-//W3C//DTD SVG 20010904//EN"
 "http://www.w3.org/TR/2001/REC-SVG-20010904/DTD/svg10.dtd">
<svg version="1.0" xmlns="http://www.w3.org/2000/svg"
 width="16" height="16" viewBox="0 0 512.000000 512.000000"
 preserveAspectRatio="xMidYMid meet">

<g transform="translate(0.000000,512.000000) scale(0.100000,-0.100000)"
fill="#000000" stroke="none">
<path d="M2315 5109 c-800 -83 -1501 -518 -1927 -1196 -487 -774 -516 -1777
-75 -2578 200 -364 487 -676 841 -913 238 -159 600 -311 876 -366 214 -43 295
-51 530 -51 236 0 333 10 532 51 880 184 1615 842 1898 1702 92 278 125 491
125 802 0 301 -32 513 -116 775 -124 390 -330 728 -622 1024 -399 404 -893
653 -1462 737 -123 18 -478 26 -600 13z m1229 -2018 c246 -87 409 -323 393
-566 -19 -281 -233 -498 -514 -521 -397 -33 -674 306 -573 701 50 197 203 351
396 400 81 20 221 14 298 -14z m1029 -8 c121 -45 187 -132 187 -249 0 -44 -5
-67 -16 -78 -26 -27 -50 -3 -73 74 -40 132 -115 181 -275 181 -146 0 -249 -49
-288 -137 -18 -42 -18 -46 -2 -80 34 -70 129 -123 329 -183 305 -92 377 -160
363 -345 -10 -120 -77 -199 -200 -238 -62 -19 -95 -23 -213 -23 -138 0 -142 1
-205 32 -76 38 -146 102 -171 158 -20 42 -26 149 -10 173 18 29 46 7 81 -65
65 -135 148 -191 295 -200 134 -9 252 33 308 109 11 14 22 49 25 76 4 44 1 52
-28 85 -40 46 -118 84 -291 141 -306 101 -390 166 -389 302 1 144 77 236 233
279 78 22 265 15 340 -12z m-2386 -30 c10 -25 17 -83 21 -165 3 -71 8 -128 13
-128 4 0 23 9 41 19 46 27 148 45 216 38 179 -19 264 -112 293 -316 23 -157
-11 -324 -81 -403 -53 -61 -121 -89 -230 -96 -119 -6 -160 7 -233 76 -123 118
-155 244 -54 216 24 -7 39 -22 57 -56 54 -100 109 -132 221 -133 64 0 81 4
111 24 128 88 157 371 52 508 -48 63 -150 96 -231 74 -52 -14 -134 -87 -156
-138 -8 -21 -19 -64 -22 -95 -11 -101 -68 -130 -101 -51 -32 75 -27 581 5 642
7 13 21 21 37 21 19 0 28 -8 41 -37z m-1768 -316 c16 -34 64 -163 105 -286 41
-123 77 -225 79 -227 2 -2 34 94 71 214 86 275 121 360 153 375 48 22 77 -38
183 -378 34 -110 65 -204 68 -209 2 -5 40 97 82 225 102 310 145 392 190 364
27 -16 -5 -141 -131 -522 -98 -295 -120 -329 -169 -266 -31 40 -53 94 -120
300 -33 104 -67 202 -74 218 l-14 30 -19 -45 c-11 -25 -48 -130 -83 -235 -66
-200 -100 -279 -124 -288 -21 -8 -54 3 -61 21 -34 82 -197 596 -226 711 -12
49 -12 54 5 67 28 20 51 2 85 -69z m1429 59 c95 -49 172 -178 180 -300 7 -108
9 -107 -245 -117 -115 -4 -238 -8 -275 -8 l-67 -1 16 -52 c8 -29 22 -66 30
-83 51 -102 173 -156 271 -121 56 20 86 44 133 107 45 61 71 81 93 73 61 -23
-8 -186 -105 -251 -38 -25 -51 -27 -163 -31 -74 -3 -138 0 -164 8 -86 23 -162
122 -193 250 -17 72 -17 211 0 280 27 110 99 218 161 242 73 29 276 31 328 4z"/>
<path d="M3293 3006 c-130 -32 -257 -133 -322 -255 -41 -77 -50 -162 -32 -281
15 -96 40 -147 108 -221 135 -145 352 -186 529 -99 113 55 225 197 253 321 54
233 -126 484 -387 538 -64 13 -82 13 -149 -3z"/>
<path d="M1605 2706 c-35 -15 -106 -90 -130 -136 -16 -30 -16 -34 -1 -49 14
-14 50 -16 236 -19 l219 -3 -17 52 c-24 74 -81 135 -145 154 -62 18 -122 19
-162 1z"/>
</g>
</svg>
