<svg width="16" height="16" viewBox="0 0 16 16" fill="none" xmlns="http://www.w3.org/2000/svg">
<path d="M4 14H8H12" stroke="#6E6E6E" stroke-linecap="square"/>
<path d="M8 12.5L8.00005 7M8.00005 7L7 7.90909H9L8.00005 7Z" stroke="#CB1744" stroke-width="2"/>
<path d="M1.5 3V2.5H1L1 3L1.5 3ZM14.5 3H15V2.5H14.5V3ZM14.5 12V12.5H15V12H14.5ZM1.5 12L1 12L1 12.5H1.5V12ZM4.5 12.5H5V11.5H4.5V12.5ZM1.5 3.5H14.5V2.5H1.5V3.5ZM14 3V12H15V3H14ZM2 12L2 3L1 3L1 12L2 12ZM4.5 11.5H1.5V12.5H4.5V11.5ZM14.5 11.5H9V12.5H14.5V11.5Z" fill="#6E6E6E"/>
</svg>
